<?xml version="1.0" encoding="utf-8"?>
<!-- Generator: Adobe Illustrator 17.0.0, SVG Export Plug-In . SVG Version: 6.00 Build 0)  -->
<!DOCTYPE svg PUBLIC "-//W3C//DTD SVG 1.1//EN" "http://www.w3.org/Graphics/SVG/1.1/DTD/svg11.dtd">
<svg version="1.1" id="icons_misc" xmlns="http://www.w3.org/2000/svg" xmlns:xlink="http://www.w3.org/1999/xlink" x="0px" y="0px"
	 width="24px" height="520px" viewBox="0 0 24 520" enable-background="new 0 0 24 520" xml:space="preserve">
<polygon fill="#A2A27B" points="15,121.587 13.507,120 8.869,124.857 6.546,122.371 5,123.871 8.875,128 "/>
<path fill="#F37764" d="M19.75,46.7C18.203,51.822,10,58,10,58s-8.203-6.178-9.75-11.3C0.088,46.209,0,45.686,0,45.143
	C0,42.303,2.387,40,5.333,40c2.236,0,3.957,1.329,4.656,3.211C9.992,43.212,10,43.214,10,43.214s0.008-0.002,0.011-0.003
	C10.71,41.329,12.43,40,14.667,40C17.612,40,20,42.303,20,45.143C20,45.686,19.911,46.209,19.75,46.7z"/>
<path fill="#808080" d="M19.75,86.7C18.203,91.822,10,98,10,98s-8.203-6.178-9.75-11.3C0.088,86.209,0,85.686,0,85.143
	C0,82.303,2.387,80,5.333,80c2.236,0,3.957,1.329,4.656,3.211C9.992,83.212,10,83.214,10,83.214s0.008-0.002,0.011-0.003
	C10.71,81.329,12.43,80,14.667,80C17.612,80,20,82.303,20,85.143C20,85.686,19.911,86.209,19.75,86.7z"/>
<path fill="#999999" d="M14.666,0c-2.236,0-3.957,1.329-4.656,3.211c-0.003,0.001-0.019,0.001-0.021,0C9.156,1.469,7.57,0,5.333,0
	C2.387,0,0,2.303,0,5.143C0,5.686,0.088,6.209,0.25,6.7C1.797,11.822,10,18,10,18s8.203-6.178,9.75-11.3
	C19.912,6.209,20,5.686,20,5.143C19.999,2.303,17.611,0,14.666,0z M18.791,6.411c-1.199,3.972-6.911,8.808-8.792,10.317
	c-1.881-1.51-7.594-6.35-8.801-10.341C1.066,5.985,0.999,5.566,0.999,5.142c0-2.285,1.944-4.143,4.333-4.143
	c1.707,0,2.843,1.167,3.718,2.559C9.215,3.82,9.998,5.03,9.998,5.03s0.786-1.215,0.948-1.472c0.89-1.409,2.011-2.559,3.718-2.559
	c2.39,0,4.333,1.858,4.333,4.143C18.999,5.565,18.932,5.983,18.791,6.411z"/>
<path fill="#B7B7BB" d="M17.812,165.274C16.652,169.306,10,174,10,174s-6.652-4.694-7.812-8.726C2.066,164.887,2,164.476,2,164.048
	C2,161.813,3.791,160,6,160c2.963,0,4,3.231,4,3.231s0,0.195,0,0c0.525-1.482,2.323-3.231,4-3.231c2.209,0,4,1.813,4,4.048
	C18,164.476,17.934,164.887,17.812,165.274z"/>
<g>
	<path fill="#B7B7BB" d="M15,210c-0.795,0-1.514,0.315-2.051,0.82l-4.993-2.388C7.977,208.29,8,208.148,8,208
		c0-0.109-0.021-0.213-0.032-0.319l5.073-2.426C13.567,205.713,14.247,206,15,206c1.657,0,3-1.343,3-3s-1.343-3-3-3s-3,1.343-3,3
		c0,0.175,0.023,0.344,0.052,0.511l-4.938,2.361C6.572,205.334,5.825,205,5,205c-1.657,0-3,1.343-3,3s1.343,3,3,3
		c0.782,0,1.489-0.307,2.023-0.797l5.017,2.4C12.023,212.734,12,212.864,12,213c0,1.657,1.343,3,3,3s3-1.343,3-3S16.657,210,15,210z
		"/>
</g>
<g>
	<path fill="#B7B7BB" d="M10,240c-4.418,0-8,3.582-8,8s3.582,8,8,8s8-3.582,8-8S14.418,240,10,240z M8.875,252L5,247.871l1.546-1.5
		l2.323,2.486L13.507,244L15,245.587L8.875,252z"/>
</g>
<g>
	<g>
		<path fill="#9EAAAF" d="M10,280.25c-4.142,0-7.5,2.924-7.5,6.532s3.358,6.532,7.5,6.532v1.936c0,0,4.564-3.19,5.361-3.899
			c1.324-1.178,2.139-2.79,2.139-4.568C17.5,283.174,14.142,280.25,10,280.25z M6.205,287.787c-0.552,0-1-0.433-1-0.968
			c0-0.534,0.448-0.968,1-0.968s1,0.433,1,0.968C7.205,287.353,6.757,287.787,6.205,287.787z M9.971,287.787
			c-0.552,0-1-0.433-1-0.968c0-0.534,0.448-0.968,1-0.968s1,0.433,1,0.968C10.971,287.353,10.523,287.787,9.971,287.787z
			 M13.707,287.787c-0.552,0-1-0.433-1-0.968c0-0.534,0.448-0.968,1-0.968s1,0.433,1,0.968
			C14.707,287.353,14.259,287.787,13.707,287.787z"/>
	</g>
</g>
<path fill="#FFFFFF" d="M16,326v-2h-0.019v-0.016h-1.982C13.99,321.779,12.208,320,10,320s-3.99,1.779-3.998,3.984h-1.99v1h10.981
	L14.985,326H13.44h-1.259l0,0H7.804l0,0H6.555H4l-1,10.974h13.995L16,326z M7.002,323.984c0.008-1.658,1.323-3.016,2.983-3.016
	s3.005,1.357,3.014,3.016H7.002z"/>
<g>
	<g>
		<path fill="#FFFFFF" d="M10.779,369.361l5.401-5.257l-2.261-2.141l-5.454,5.406l-0.79,1.986l1.01,1.104L10.779,369.361z
			 M17.797,362.335c0,0,0.179-0.132,0.179-0.335c0-0.234-0.115-0.337-0.195-0.417l-1.362-1.423C16.318,360.059,16.179,360,16,360
			c-0.109,0-0.189,0.053-0.316,0.18l-1.019,1.062l2.136,2.083L17.797,362.335z M16,366v6c0,1.018-0.044,1-1,1H6
			c-1.018,0-1,0.018-1-1v-9c0-0.987,0.013-1,1-1h6l2-2H5c-0.968,0-2,1.07-2,2v11c0,0.992,1.008,2,2,2h11c0.992,0,2-1.008,2-2v-9
			L16,366z M6.996,370.987l1.086-0.177l-0.827-0.856L6.996,370.987z"/>
	</g>
</g>
<g>
	<g>
		<path fill="#71B7C8" d="M13,407v-5c0-1.105-0.896-2-2-2H6c-1.105,0-2,0.895-2,2v4c0,1.105,0.895,2,2,2h8L13,407z M6,402h5v1H6V402
			z M6,406v-1h5v1H6z"/>
	</g>
</g>
<g id="_x37_0b7c8">
	<rect x="8" y="455" fill="#B3C2C8" width="8" height="1"/>
	<rect x="8" y="447" fill="#B3C2C8" width="3" height="3"/>
	<rect x="8" y="452" fill="#B3C2C8" width="8" height="1"/>
	<path fill="#B3C2C8" d="M12,440c-6.627,0-12,5.373-12,12s5.373,12,12,12s12-5.373,12-12S18.627,440,12,440z M18,458H6v-13h7v5h5
		V458z M14,449v-4l4,4H14z"/>
</g>
<g>
	<rect x="8" y="495" fill="#71B7C8" width="8" height="1"/>
	<rect x="8" y="487" fill="#71B7C8" width="3" height="3"/>
	<rect x="8" y="492" fill="#71B7C8" width="8" height="1"/>
	<path fill="#71B7C8" d="M12,480c-6.627,0-12,5.373-12,12s5.373,12,12,12s12-5.373,12-12S18.627,480,12,480z M18,498H6v-13h7v5h5
		V498z M14,489v-4l4,4H14z"/>
</g>
</svg>
